# xmcd
#
# Track frame offsets:
#	150
#	17265
#	34878
#	51031
#	65885
#	84609
#	104580
#	122652
#	134170
#	143152
#
# Disc length: 2055 seconds
#
# Revision: 1
# Processed by: cddbd v1.5.2PL0 Copyright (c) Steve Scherf et al.
# Submitted via: audiograbber 1.83.01
#
DISCID=9108050a
DTITLE=Bryan Burnett - OUTLAW
DYEAR=2007
DGENRE=Country
TTITLE0=Life Ain't Over When You're Dead
TTITLE1=Hickory Dickory Dock
TTITLE2=In A Minute
TTITLE3=Beaumont
TTITLE4=Gypsy Caravan
TTITLE5=The Best Things In Life
TTITLE6=Raining Underneath My Rainbow
TTITLE7=Give Me A Bottle Of Whiskey
TTITLE8=Hey Baby
TTITLE9=It's Raining All Around
EXTD=AWESTRUCK Records, Nashville, TN\nTurkey Pond Productions
EXTT0=
EXTT1=
EXTT2=
EXTT3=
EXTT4=
EXTT5=
EXTT6=
EXTT7=
EXTT8=
EXTT9=
PLAYORDER=
